<svg xmlns="http://www.w3.org/2000/svg" viewBox="0 0 100 100">
  <defs>
    <linearGradient id="maskGradient" x1="0%" y1="0%" x2="100%" y2="100%">
      <stop offset="0%" style="stop-color:#facc15"/>
      <stop offset="100%" style="stop-color:#ca8a04"/>
    </linearGradient>
  </defs>
  <path fill="url(#maskGradient)" d="M50 15c-25 0-40 20-40 35 0 8 5 15 12 18 2-8 8-15 15-18 4 4 8 6 13 6s9-2 13-6c7 3 13 10 15 18 7-3 12-10 12-18 0-15-15-35-40-35zm-15 25c-5 0-8-3-8-7s3-7 8-7 8 3 8 7-3 7-8 7zm30 0c-5 0-8-3-8-7s3-7 8-7 8 3 8 7-3 7-8 7z"/>
</svg>




